<svg id="LOGO" xmlns="http://www.w3.org/2000/svg" viewBox="0 0 1920 1080"><defs><style>.cls-1{fill:#00a5a6;}.cls-2{fill:#065471;}</style></defs><title>Plan de travail 1</title><path class="cls-1" d="M963.76,276.06c26.63,26.09,33.88,69,27.11,221.44,0,0,147.47-194.18,165.48-216.2s66.73-45.37,105.43-18.68,41.37,77.4,10.68,115.44S1061.6,658.31,1043.58,680.33s-44,64.73-105.43,65.39S851.41,698.34,842.73,669s-4-168.82-4-194.84c0,0-110.93,145.63-133,172.66s-63.06,88.08-145.13,88.08-80.91-106.57-80.91-154.63,0-224.22,0-241.56,2-96.09,82.08-95.42S631.21,344,631.21,368s1.33,126.45,1.33,126.45S702.61,392.73,776,308.66c29.67-34,59.68-50.31,84.89-57.7C897.1,240.36,936.81,249.66,963.76,276.06Z"/><path class="cls-2" d="M963.76,276.06c-26.95-26.4-66.66-35.7-102.86-25.1-25.21,7.38-55.22,23.71-84.89,57.7q-4.73,5.42-9.43,10.93c73.75-49.47,73.87,25.67,71.85,155l.3-.4c0,11.75-1,46.65-1.2,84.08,0,.18,9.44,47,46.4,46.54s90.58-81.07,106.93-107.26C997.64,345.11,990.38,302.15,963.76,276.06Z"/><path class="cls-2" d="M561.81,243.27c-80.07-.67-82.08,78.07-82.08,95.42,0,16.67,0,179.84,0,235.28,10.29,17.5,25.28,30.49,39.37,29.29,23.52-2,55.72-19.35,113.44-108.76,0,0-1.33-102.43-1.33-126.45S641.88,243.93,561.81,243.27Z"/><rect class="cls-1" x="968.21" y="619.58" width="408.01" height="153.53" rx="76.76" ry="76.76" transform="matrix(0.87, 0.5, -0.5, 0.87, 505.22, -492.81)"/><path class="cls-2" d="M1319.53,692.76,1172.69,608a.36.36,0,0,0-.48.11c-10.45,15.25-16.08,33.32-13.52,51.22,6,42,124.11,88.76-17,86.42-12.32-.2-23.75.17-34.38,1a.36.36,0,0,0-.14.67l136.87,79A76.77,76.77,0,0,0,1346.61,802C1370.87,764.95,1357.91,714.92,1319.53,692.76Z"/><circle class="cls-1" cx="1293.38" cy="547.76" r="53.27"/><circle class="cls-2" cx="1293.38" cy="572.98" r="28.05"/></svg>